<svg xmlns="http://www.w3.org/2000/svg" viewBox="0 0 400 400" style="">
        <defs><path d="M142.00,200  a57.99999999999999,57.99999999999999 0 0,0 116.00,0 a57.99999999999999,57.99999999999999 0 1,0 -116.00,0 m8.70,0  a49.300,49.300 0 0,0 98.60,0 a49.300,49.300 0 1,0 -98.60,0" style="stroke:#3D1414;stroke-width:1;fill:#FC4811;fill-rule:evenodd" id="c1" /><path d="M200,66.00 l134,134 l-134,134 l-134,-134 l134,-134 m0,17.42 l116.58,116.58 l-116.58,116.58 l-116.58,-116.58 l116.58,-116.58" style="stroke:#141C3D;stroke-width:1;fill:#6948A4;fill-rule:evenodd" id="r1" /><path d="M76.00,76.00 h248.00 v248.00 h-248.00 v-248.00 m12.40,12.40 h223.20 v223.20 h-223.20 v-223.20" style="stroke:#14173D;stroke-width:1;fill:#4C36C1;fill-rule:evenodd" id="q1" /><path id="m1" d="M213.33,5.00 a20,20 0 1,0 0,30.00 a15.00,15.00 0 0,1 0,-30.00" style="stroke:#000;stroke-width:1;fill:#fcfa11;fill-rule:evenodd" /><g id="l1"><path d="M200,38.50  a18.70,18.70 0 0,1 0,30.60 a18.70,18.70 0 0,1 0,-30.60" style="stroke:#000;stroke-width:1;fill:#fc11e1;fill-rule:evenodd" transform="rotate(-40 200 72.50)" />
        <path d="M200,38.50  a18.70,18.70 0 0,1 0,30.60 a18.70,18.70 0 0,1 0,-30.60" style="stroke:#000;stroke-width:1;fill:#fc11e1;fill-rule:evenodd" transform="rotate(-20 200 72.50)" />
        <path d="M200,38.50  a18.70,18.70 0 0,1 0,30.60 a18.70,18.70 0 0,1 0,-30.60" style="stroke:#000;stroke-width:1;fill:#fc11e1;fill-rule:evenodd" transform="rotate(40 200 72.50)" />
        <path d="M200,38.50  a18.70,18.70 0 0,1 0,30.60 a18.70,18.70 0 0,1 0,-30.60" style="stroke:#000;stroke-width:1;fill:#fc11e1;fill-rule:evenodd" transform="rotate(20 200 72.50)" />
        <path d="M200,38.50  a18.70,18.70 0 0,1 0,30.60 a18.70,18.70 0 0,1 0,-30.60" style="stroke:#000;stroke-width:1;fill:#fc11e1;fill-rule:evenodd" /></g></defs>
        <rect x="0" y="0" width="400" height="400" rx="0" ry="0" style="fill:#C9c9c9" />
        <use href="#c1" transform="matrix(1.00 0 0 1.00 0.00 0.00) rotate(0.00 200 200)" /><use href="#r1" transform="matrix(0.85 0 0 0.85 30.00 30.00) rotate(0.00 200 200)" /><use href="#r1" transform="matrix(0.85 0 0 0.85 30.00 30.00) rotate(72.00 200 200)" /><use href="#r1" transform="matrix(0.85 0 0 0.85 30.00 30.00) rotate(144.00 200 200)" /><use href="#r1" transform="matrix(0.85 0 0 0.85 30.00 30.00) rotate(216.00 200 200)" /><use href="#r1" transform="matrix(0.85 0 0 0.85 30.00 30.00) rotate(288.00 200 200)" />
        <use href="#q1" transform="matrix(0.79 0 0 0.79 42.00 42.00) rotate(0.00 200 200)" /><use href="#q1" transform="matrix(0.73 0 0 0.73 54.00 54.00) rotate(0.00 200 200)" /><use href="#r1" transform="matrix(0.67 0 0 0.67 66.00 66.00) rotate(0.00 200 200)" /><use href="#r1" transform="matrix(0.67 0 0 0.67 66.00 66.00) rotate(72.00 200 200)" /><use href="#r1" transform="matrix(0.67 0 0 0.67 66.00 66.00) rotate(144.00 200 200)" /><use href="#r1" transform="matrix(0.67 0 0 0.67 66.00 66.00) rotate(216.00 200 200)" /><use href="#r1" transform="matrix(0.67 0 0 0.67 66.00 66.00) rotate(288.00 200 200)" />
        <use href="#q1" transform="matrix(0.62 0 0 0.62 76.00 76.00) rotate(0.00 200 200)" /><use href="#c1" transform="matrix(0.57 0 0 0.57 86.00 86.00) rotate(0.00 200 200)" />
        
        <use href="#c1" transform="matrix(0.32 0 0 0.32 136.00 136.00) rotate(0.00 200 200)" />
        <use href="#c1" transform="matrix(0.29 0 0 0.29 142.00 142.00) rotate(0.00 200 200)" /><use href="#m1" transform="matrix(1.00 0 0 1.00 0.00 0.00) rotate(0.00 200 200)" />
        <use href="#l1" transform="matrix(0.62 0 0 0.62 76.00 76.00) rotate(0.00 200 200)" /><use href="#l1" transform="matrix(0.62 0 0 0.62 76.00 76.00) rotate(60.00 200 200)" /><use href="#l1" transform="matrix(0.62 0 0 0.62 76.00 76.00) rotate(120.00 200 200)" /><use href="#l1" transform="matrix(0.62 0 0 0.62 76.00 76.00) rotate(180.00 200 200)" /><use href="#l1" transform="matrix(0.62 0 0 0.62 76.00 76.00) rotate(240.00 200 200)" /><use href="#l1" transform="matrix(0.62 0 0 0.62 76.00 76.00) rotate(300.00 200 200)" />
      </svg>