<svg xmlns="http://www.w3.org/2000/svg" viewBox="0 0 400 400" style="">
        <defs><path d="M76.00,200  a124,124 0 0,0 248.00,0 a124,124 0 1,0 -248.00,0 m18.60,0  a105.400,105.400 0 0,0 210.80,0 a105.400,105.400 0 1,0 -210.80,0" style="stroke:#3D1414;stroke-width:1;fill:#FC3611;fill-rule:evenodd" id="c1" /><path d="M200,16.00 l184,184 l-184,184 l-184,-184 l184,-184 m0,23.92 l160.08,160.08 l-160.08,160.08 l-160.08,-160.08 l160.08,-160.08" style="stroke:#141C3D;stroke-width:1;fill:#875A87;fill-rule:evenodd" id="r1" /><path d="M200,0.00 L373.21,300.00 L26.79,300.00 L200,0.00 M200,26.00 L350.69,287.00 L49.31,287.00 L200,26.00" style="stroke:#1E1E33;stroke-width:1;fill:#FC9111;fill-rule:evenodd" id="t1" /><path d="M86.00,86.00 h228.00 v228.00 h-228.00 v-228.00 m11.40,11.40 h205.20 v205.20 h-205.20 v-205.20" style="stroke:#14173D;stroke-width:1;fill:#2E23DF;fill-rule:evenodd" id="q1" /><g id="l1"><path d="M200,38.50  a18.70,18.70 0 0,1 0,30.60 a18.70,18.70 0 0,1 0,-30.60" style="stroke:#000;stroke-width:1;fill:#fc11e1;fill-rule:evenodd" transform="rotate(-40 200 72.50)" />
        <path d="M200,38.50  a18.70,18.70 0 0,1 0,30.60 a18.70,18.70 0 0,1 0,-30.60" style="stroke:#000;stroke-width:1;fill:#fc11e1;fill-rule:evenodd" transform="rotate(-20 200 72.50)" />
        <path d="M200,38.50  a18.70,18.70 0 0,1 0,30.60 a18.70,18.70 0 0,1 0,-30.60" style="stroke:#000;stroke-width:1;fill:#fc11e1;fill-rule:evenodd" transform="rotate(40 200 72.50)" />
        <path d="M200,38.50  a18.70,18.70 0 0,1 0,30.60 a18.70,18.70 0 0,1 0,-30.60" style="stroke:#000;stroke-width:1;fill:#fc11e1;fill-rule:evenodd" transform="rotate(20 200 72.50)" />
        <path d="M200,38.50  a18.70,18.70 0 0,1 0,30.60 a18.70,18.70 0 0,1 0,-30.60" style="stroke:#000;stroke-width:1;fill:#fc11e1;fill-rule:evenodd" /></g></defs>
        <rect x="0" y="0" width="400" height="400" rx="0" ry="0" style="fill:#8F8F8F" />
        <use href="#r1" transform="matrix(0.92 0 0 0.92 16.00 16.00) rotate(0.00 200 200)" /><use href="#t1" transform="matrix(0.85 0 0 0.85 30.00 30.00) rotate(0.00 200 200)"/>
        <use href="#q1" transform="matrix(0.79 0 0 0.79 42.00 42.00) rotate(0.00 200 200)" /><use href="#q1" transform="matrix(0.79 0 0 0.79 42.00 42.00) rotate(32.73 200 200)" /><use href="#q1" transform="matrix(0.79 0 0 0.79 42.00 42.00) rotate(65.45 200 200)" /><use href="#q1" transform="matrix(0.79 0 0 0.79 42.00 42.00) rotate(98.18 200 200)" /><use href="#q1" transform="matrix(0.79 0 0 0.79 42.00 42.00) rotate(130.91 200 200)" /><use href="#q1" transform="matrix(0.79 0 0 0.79 42.00 42.00) rotate(163.64 200 200)" /><use href="#q1" transform="matrix(0.79 0 0 0.79 42.00 42.00) rotate(196.36 200 200)" /><use href="#q1" transform="matrix(0.79 0 0 0.79 42.00 42.00) rotate(229.09 200 200)" /><use href="#q1" transform="matrix(0.79 0 0 0.79 42.00 42.00) rotate(261.82 200 200)" /><use href="#q1" transform="matrix(0.79 0 0 0.79 42.00 42.00) rotate(294.55 200 200)" /><use href="#q1" transform="matrix(0.79 0 0 0.79 42.00 42.00) rotate(327.27 200 200)" /><use href="#c1" transform="matrix(0.73 0 0 0.73 54.00 54.00) rotate(0.00 200 200)" /><use href="#c1" transform="matrix(0.67 0 0 0.67 66.00 66.00) rotate(0.00 200 200)" />
        <use href="#c1" transform="matrix(0.62 0 0 0.62 76.00 76.00) rotate(0.00 200 200)" /><use href="#q1" transform="matrix(0.57 0 0 0.57 86.00 86.00) rotate(0.00 200 200)" /><use href="#t1" transform="matrix(0.53 0 0 0.53 94.00 94.00) rotate(0.00 200 200)"/><use href="#t1" transform="matrix(0.53 0 0 0.53 94.00 94.00) rotate(45.00 200 200)"/><use href="#t1" transform="matrix(0.53 0 0 0.53 94.00 94.00) rotate(90.00 200 200)"/><use href="#t1" transform="matrix(0.53 0 0 0.53 94.00 94.00) rotate(135.00 200 200)"/><use href="#t1" transform="matrix(0.53 0 0 0.53 94.00 94.00) rotate(180.00 200 200)"/><use href="#t1" transform="matrix(0.53 0 0 0.53 94.00 94.00) rotate(225.00 200 200)"/><use href="#t1" transform="matrix(0.53 0 0 0.53 94.00 94.00) rotate(270.00 200 200)"/><use href="#t1" transform="matrix(0.53 0 0 0.53 94.00 94.00) rotate(315.00 200 200)"/>
        <use href="#t1" transform="matrix(0.49 0 0 0.49 102.00 102.00) rotate(0.00 200 200)"/><use href="#t1" transform="matrix(0.49 0 0 0.49 102.00 102.00) rotate(25.71 200 200)"/><use href="#t1" transform="matrix(0.49 0 0 0.49 102.00 102.00) rotate(51.43 200 200)"/><use href="#t1" transform="matrix(0.49 0 0 0.49 102.00 102.00) rotate(77.14 200 200)"/><use href="#t1" transform="matrix(0.49 0 0 0.49 102.00 102.00) rotate(102.86 200 200)"/><use href="#t1" transform="matrix(0.49 0 0 0.49 102.00 102.00) rotate(128.57 200 200)"/><use href="#t1" transform="matrix(0.49 0 0 0.49 102.00 102.00) rotate(154.29 200 200)"/><use href="#t1" transform="matrix(0.49 0 0 0.49 102.00 102.00) rotate(180.00 200 200)"/><use href="#t1" transform="matrix(0.49 0 0 0.49 102.00 102.00) rotate(205.71 200 200)"/><use href="#t1" transform="matrix(0.49 0 0 0.49 102.00 102.00) rotate(231.43 200 200)"/><use href="#t1" transform="matrix(0.49 0 0 0.49 102.00 102.00) rotate(257.14 200 200)"/><use href="#t1" transform="matrix(0.49 0 0 0.49 102.00 102.00) rotate(282.86 200 200)"/><use href="#t1" transform="matrix(0.49 0 0 0.49 102.00 102.00) rotate(308.57 200 200)"/><use href="#t1" transform="matrix(0.49 0 0 0.49 102.00 102.00) rotate(334.29 200 200)"/>
        <g transform="rotate(30 200 200)"><use href="#t1" transform="matrix(0.32 0 0 0.32 136.00 136.00) rotate(0.00 200 200)"/><use href="#t1" transform="matrix(0.32 0 0 0.32 136.00 136.00) rotate(60.00 200 200)"/></g>
        
        <use href="#l1" transform="matrix(0.62 0 0 0.62 76.00 76.00) rotate(0.00 200 200)" /><use href="#l1" transform="matrix(0.62 0 0 0.62 76.00 76.00) rotate(51.43 200 200)" /><use href="#l1" transform="matrix(0.62 0 0 0.62 76.00 76.00) rotate(102.86 200 200)" /><use href="#l1" transform="matrix(0.62 0 0 0.62 76.00 76.00) rotate(154.29 200 200)" /><use href="#l1" transform="matrix(0.62 0 0 0.62 76.00 76.00) rotate(205.71 200 200)" /><use href="#l1" transform="matrix(0.62 0 0 0.62 76.00 76.00) rotate(257.14 200 200)" /><use href="#l1" transform="matrix(0.62 0 0 0.62 76.00 76.00) rotate(308.57 200 200)" />
      </svg>