<svg xmlns="http://www.w3.org/2000/svg" viewBox="0 0 400 400" style="">
        <defs><path d="M102.00,200  a98,98 0 0,0 196.00,0 a98,98 0 1,0 -196.00,0 m14.70,0  a83.300,83.300 0 0,0 166.60,0 a83.300,83.300 0 1,0 -166.60,0" style="stroke:#3D1414;stroke-width:1;fill:#FC2311;fill-rule:evenodd" id="c1" /><path d="M200,124.00 l76,76 l-76,76 l-76,-76 l76,-76 m0,9.88 l66.12,66.12 l-66.12,66.12 l-66.12,-66.12 l66.12,-66.12" style="stroke:#141C3D;stroke-width:1;fill:#A46C69;fill-rule:evenodd" id="r1" /><path d="M200,0.00 L373.21,300.00 L26.79,300.00 L200,0.00 M200,26.00 L350.69,287.00 L49.31,287.00 L200,26.00" style="stroke:#1E1E33;stroke-width:1;fill:#DF91DE;fill-rule:evenodd" id="t1" /><path d="M94.00,94.00 h212.00 v212.00 h-212.00 v-212.00 m10.60,10.60 h190.80 v190.80 h-190.80 v-190.80" style="stroke:#14173D;stroke-width:1;fill:#1111FC;fill-rule:evenodd" id="q1" /><g id="l1"><path d="M200,38.50  a18.70,18.70 0 0,1 0,30.60 a18.70,18.70 0 0,1 0,-30.60" style="stroke:#000;stroke-width:1;fill:#fc11e1;fill-rule:evenodd" transform="rotate(-40 200 72.50)" />
        <path d="M200,38.50  a18.70,18.70 0 0,1 0,30.60 a18.70,18.70 0 0,1 0,-30.60" style="stroke:#000;stroke-width:1;fill:#fc11e1;fill-rule:evenodd" transform="rotate(-20 200 72.50)" />
        <path d="M200,38.50  a18.70,18.70 0 0,1 0,30.60 a18.70,18.70 0 0,1 0,-30.60" style="stroke:#000;stroke-width:1;fill:#fc11e1;fill-rule:evenodd" transform="rotate(40 200 72.50)" />
        <path d="M200,38.50  a18.70,18.70 0 0,1 0,30.60 a18.70,18.70 0 0,1 0,-30.60" style="stroke:#000;stroke-width:1;fill:#fc11e1;fill-rule:evenodd" transform="rotate(20 200 72.50)" />
        <path d="M200,38.50  a18.70,18.70 0 0,1 0,30.60 a18.70,18.70 0 0,1 0,-30.60" style="stroke:#000;stroke-width:1;fill:#fc11e1;fill-rule:evenodd" /></g></defs>
        <rect x="0" y="0" width="400" height="400" rx="0" ry="0" style="fill:#02040b" />
        <g transform="rotate(30 200 200)"><use href="#t1" transform="matrix(1.00 0 0 1.00 0.00 0.00) rotate(0.00 200 200)"/><use href="#t1" transform="matrix(1.00 0 0 1.00 0.00 0.00) rotate(180.00 200 200)"/></g>
        <use href="#r1" transform="matrix(0.67 0 0 0.67 66.00 66.00) rotate(0.00 200 200)" /><use href="#r1" transform="matrix(0.67 0 0 0.67 66.00 66.00) rotate(32.73 200 200)" /><use href="#r1" transform="matrix(0.67 0 0 0.67 66.00 66.00) rotate(65.45 200 200)" /><use href="#r1" transform="matrix(0.67 0 0 0.67 66.00 66.00) rotate(98.18 200 200)" /><use href="#r1" transform="matrix(0.67 0 0 0.67 66.00 66.00) rotate(130.91 200 200)" /><use href="#r1" transform="matrix(0.67 0 0 0.67 66.00 66.00) rotate(163.64 200 200)" /><use href="#r1" transform="matrix(0.67 0 0 0.67 66.00 66.00) rotate(196.36 200 200)" /><use href="#r1" transform="matrix(0.67 0 0 0.67 66.00 66.00) rotate(229.09 200 200)" /><use href="#r1" transform="matrix(0.67 0 0 0.67 66.00 66.00) rotate(261.82 200 200)" /><use href="#r1" transform="matrix(0.67 0 0 0.67 66.00 66.00) rotate(294.55 200 200)" /><use href="#r1" transform="matrix(0.67 0 0 0.67 66.00 66.00) rotate(327.27 200 200)" />
        <use href="#r1" transform="matrix(0.57 0 0 0.57 86.00 86.00) rotate(0.00 200 200)" /><use href="#r1" transform="matrix(0.57 0 0 0.57 86.00 86.00) rotate(120.00 200 200)" /><use href="#r1" transform="matrix(0.57 0 0 0.57 86.00 86.00) rotate(240.00 200 200)" /><use href="#q1" transform="matrix(0.53 0 0 0.53 94.00 94.00) rotate(0.00 200 200)" />
        <use href="#c1" transform="matrix(0.49 0 0 0.49 102.00 102.00) rotate(0.00 200 200)" /><use href="#t1" transform="matrix(0.45 0 0 0.45 110.00 110.00) rotate(0.00 200 200)"/>
        <use href="#r1" transform="matrix(0.38 0 0 0.38 124.00 124.00) rotate(0.00 200 200)" /><use href="#r1" transform="matrix(0.38 0 0 0.38 124.00 124.00) rotate(40.00 200 200)" /><use href="#r1" transform="matrix(0.38 0 0 0.38 124.00 124.00) rotate(80.00 200 200)" /><use href="#r1" transform="matrix(0.38 0 0 0.38 124.00 124.00) rotate(120.00 200 200)" /><use href="#r1" transform="matrix(0.38 0 0 0.38 124.00 124.00) rotate(160.00 200 200)" /><use href="#r1" transform="matrix(0.38 0 0 0.38 124.00 124.00) rotate(200.00 200 200)" /><use href="#r1" transform="matrix(0.38 0 0 0.38 124.00 124.00) rotate(240.00 200 200)" /><use href="#r1" transform="matrix(0.38 0 0 0.38 124.00 124.00) rotate(280.00 200 200)" /><use href="#r1" transform="matrix(0.38 0 0 0.38 124.00 124.00) rotate(320.00 200 200)" />
        
        <use href="#l1" transform="matrix(0.62 0 0 0.62 76.00 76.00) rotate(0.00 200 200)" /><use href="#l1" transform="matrix(0.62 0 0 0.62 76.00 76.00) rotate(45.00 200 200)" /><use href="#l1" transform="matrix(0.62 0 0 0.62 76.00 76.00) rotate(90.00 200 200)" /><use href="#l1" transform="matrix(0.62 0 0 0.62 76.00 76.00) rotate(135.00 200 200)" /><use href="#l1" transform="matrix(0.62 0 0 0.62 76.00 76.00) rotate(180.00 200 200)" /><use href="#l1" transform="matrix(0.62 0 0 0.62 76.00 76.00) rotate(225.00 200 200)" /><use href="#l1" transform="matrix(0.62 0 0 0.62 76.00 76.00) rotate(270.00 200 200)" /><use href="#l1" transform="matrix(0.62 0 0 0.62 76.00 76.00) rotate(315.00 200 200)" />
      </svg>