<svg xmlns="http://www.w3.org/2000/svg" viewBox="0 0 400 400" style="">
        <defs><path d="M124.00,200  a76,76 0 0,0 152.00,0 a76,76 0 1,0 -152.00,0 m11.40,0  a64.600,64.600 0 0,0 129.20,0 a64.600,64.600 0 1,0 -129.20,0" style="stroke:#3D1414;stroke-width:1;fill:#FC1111;fill-rule:evenodd" id="c1" /><path d="M200,94.00 l106,106 l-106,106 l-106,-106 l106,-106 m0,13.78 l92.22,92.22 l-92.22,92.22 l-92.22,-92.22 l92.22,-92.22" style="stroke:#141C3D;stroke-width:1;fill:#6948A4;fill-rule:evenodd" id="r1" /><path d="M200,0.00 L373.21,300.00 L26.79,300.00 L200,0.00 M200,26.00 L350.69,287.00 L49.31,287.00 L200,26.00" style="stroke:#1E1E33;stroke-width:1;fill:#FC7F11;fill-rule:evenodd" id="t1" /><path d="M142.00,142.00 h116.00 v116.00 h-116.00 v-116.00 m5.80,5.80 h104.40 v104.40 h-104.40 v-104.40" style="stroke:#14173D;stroke-width:1;fill:#4C36C1;fill-rule:evenodd" id="q1" /><g id="l1"><path d="M200,38.50  a18.70,18.70 0 0,1 0,30.60 a18.70,18.70 0 0,1 0,-30.60" style="stroke:#000;stroke-width:1;fill:#fc11e1;fill-rule:evenodd" transform="rotate(-40 200 72.50)" />
        <path d="M200,38.50  a18.70,18.70 0 0,1 0,30.60 a18.70,18.70 0 0,1 0,-30.60" style="stroke:#000;stroke-width:1;fill:#fc11e1;fill-rule:evenodd" transform="rotate(-20 200 72.50)" />
        <path d="M200,38.50  a18.70,18.70 0 0,1 0,30.60 a18.70,18.70 0 0,1 0,-30.60" style="stroke:#000;stroke-width:1;fill:#fc11e1;fill-rule:evenodd" transform="rotate(40 200 72.50)" />
        <path d="M200,38.50  a18.70,18.70 0 0,1 0,30.60 a18.70,18.70 0 0,1 0,-30.60" style="stroke:#000;stroke-width:1;fill:#fc11e1;fill-rule:evenodd" transform="rotate(20 200 72.50)" />
        <path d="M200,38.50  a18.70,18.70 0 0,1 0,30.60 a18.70,18.70 0 0,1 0,-30.60" style="stroke:#000;stroke-width:1;fill:#fc11e1;fill-rule:evenodd" /></g></defs>
        <rect x="0" y="0" width="400" height="400" rx="0" ry="0" style="fill:#C9c9c9" />
        <use href="#c1" transform="matrix(1.00 0 0 1.00 0.00 0.00) rotate(0.00 200 200)" />
        <use href="#c1" transform="matrix(0.79 0 0 0.79 42.00 42.00) rotate(0.00 200 200)" /><use href="#r1" transform="matrix(0.67 0 0 0.67 66.00 66.00) rotate(0.00 200 200)" /><use href="#r1" transform="matrix(0.67 0 0 0.67 66.00 66.00) rotate(27.69 200 200)" /><use href="#r1" transform="matrix(0.67 0 0 0.67 66.00 66.00) rotate(55.38 200 200)" /><use href="#r1" transform="matrix(0.67 0 0 0.67 66.00 66.00) rotate(83.08 200 200)" /><use href="#r1" transform="matrix(0.67 0 0 0.67 66.00 66.00) rotate(110.77 200 200)" /><use href="#r1" transform="matrix(0.67 0 0 0.67 66.00 66.00) rotate(138.46 200 200)" /><use href="#r1" transform="matrix(0.67 0 0 0.67 66.00 66.00) rotate(166.15 200 200)" /><use href="#r1" transform="matrix(0.67 0 0 0.67 66.00 66.00) rotate(193.85 200 200)" /><use href="#r1" transform="matrix(0.67 0 0 0.67 66.00 66.00) rotate(221.54 200 200)" /><use href="#r1" transform="matrix(0.67 0 0 0.67 66.00 66.00) rotate(249.23 200 200)" /><use href="#r1" transform="matrix(0.67 0 0 0.67 66.00 66.00) rotate(276.92 200 200)" /><use href="#r1" transform="matrix(0.67 0 0 0.67 66.00 66.00) rotate(304.62 200 200)" /><use href="#r1" transform="matrix(0.67 0 0 0.67 66.00 66.00) rotate(332.31 200 200)" />
        <g transform="rotate(30 200 200)"><use href="#t1" transform="matrix(0.57 0 0 0.57 86.00 86.00) rotate(0.00 200 200)"/><use href="#t1" transform="matrix(0.57 0 0 0.57 86.00 86.00) rotate(180.00 200 200)"/></g><use href="#r1" transform="matrix(0.53 0 0 0.53 94.00 94.00) rotate(0.00 200 200)" />
        <use href="#t1" transform="matrix(0.49 0 0 0.49 102.00 102.00) rotate(0.00 200 200)"/><use href="#t1" transform="matrix(0.49 0 0 0.49 102.00 102.00) rotate(22.50 200 200)"/><use href="#t1" transform="matrix(0.49 0 0 0.49 102.00 102.00) rotate(45.00 200 200)"/><use href="#t1" transform="matrix(0.49 0 0 0.49 102.00 102.00) rotate(67.50 200 200)"/><use href="#t1" transform="matrix(0.49 0 0 0.49 102.00 102.00) rotate(90.00 200 200)"/><use href="#t1" transform="matrix(0.49 0 0 0.49 102.00 102.00) rotate(112.50 200 200)"/><use href="#t1" transform="matrix(0.49 0 0 0.49 102.00 102.00) rotate(135.00 200 200)"/><use href="#t1" transform="matrix(0.49 0 0 0.49 102.00 102.00) rotate(157.50 200 200)"/><use href="#t1" transform="matrix(0.49 0 0 0.49 102.00 102.00) rotate(180.00 200 200)"/><use href="#t1" transform="matrix(0.49 0 0 0.49 102.00 102.00) rotate(202.50 200 200)"/><use href="#t1" transform="matrix(0.49 0 0 0.49 102.00 102.00) rotate(225.00 200 200)"/><use href="#t1" transform="matrix(0.49 0 0 0.49 102.00 102.00) rotate(247.50 200 200)"/><use href="#t1" transform="matrix(0.49 0 0 0.49 102.00 102.00) rotate(270.00 200 200)"/><use href="#t1" transform="matrix(0.49 0 0 0.49 102.00 102.00) rotate(292.50 200 200)"/><use href="#t1" transform="matrix(0.49 0 0 0.49 102.00 102.00) rotate(315.00 200 200)"/><use href="#t1" transform="matrix(0.49 0 0 0.49 102.00 102.00) rotate(337.50 200 200)"/>
        <use href="#c1" transform="matrix(0.38 0 0 0.38 124.00 124.00) rotate(0.00 200 200)" /><use href="#t1" transform="matrix(0.35 0 0 0.35 130.00 130.00) rotate(0.00 200 200)"/>
        <use href="#q1" transform="matrix(0.29 0 0 0.29 142.00 142.00) rotate(0.00 200 200)" /><use href="#q1" transform="matrix(0.29 0 0 0.29 142.00 142.00) rotate(40.00 200 200)" /><use href="#q1" transform="matrix(0.29 0 0 0.29 142.00 142.00) rotate(80.00 200 200)" /><use href="#q1" transform="matrix(0.29 0 0 0.29 142.00 142.00) rotate(120.00 200 200)" /><use href="#q1" transform="matrix(0.29 0 0 0.29 142.00 142.00) rotate(160.00 200 200)" /><use href="#q1" transform="matrix(0.29 0 0 0.29 142.00 142.00) rotate(200.00 200 200)" /><use href="#q1" transform="matrix(0.29 0 0 0.29 142.00 142.00) rotate(240.00 200 200)" /><use href="#q1" transform="matrix(0.29 0 0 0.29 142.00 142.00) rotate(280.00 200 200)" /><use href="#q1" transform="matrix(0.29 0 0 0.29 142.00 142.00) rotate(320.00 200 200)" />
        <use href="#l1" transform="matrix(0.62 0 0 0.62 76.00 76.00) rotate(0.00 200 200)" />
      </svg>